<svg width="63" height="63" viewBox="0 0 63 63" fill="none" xmlns="http://www.w3.org/2000/svg">
<path d="M4.92032 26.0719L13.7523 24.5359C19.5123 23.5759 23.9283 19.1599 24.6963 13.5919L26.2323 4.75986C27.1923 -1.38414 36.0243 -1.38414 36.9843 4.75986L38.5203 13.5919C39.4803 19.3519 43.8963 23.7679 49.4643 24.5359L58.2963 26.0719C64.4403 27.0319 64.4403 35.8638 58.2963 36.8238L49.4643 38.3599C43.7043 39.3199 39.2883 43.7358 38.5203 49.3038L36.9843 58.1359C36.0243 64.2799 27.1923 64.2799 26.2323 58.1359L24.6963 49.3038C23.7363 43.5438 19.3203 39.1279 13.7523 38.3599L4.92032 36.8238C-1.22368 35.8638 -1.22368 27.0319 4.92032 26.0719Z" fill="white" fill-opacity="0.7"/>
</svg>
